# xmcd
#
# Track frame offsets:
#	150
#	18374
#	37276
#	53728
#	71582
#	93780
#	108784
#	126445
#	144205
#	162425
#	184166
#	200482
#	219359
#	239315
#	256412
#	273326
#	290201
#	306223
#
# Disc length: 4299 seconds
#
# Revision: 0
# Processed by: cddbd v1.4PL0 Copyright (c) Steve Scherf et al.
# Submitted via: EasyCDDAExtractor 4.6.9.1
#
DISCID=0c10c912
DTITLE=Bad Boys Blue - Romantic Ballads
DYEAR=1998
DGENRE=Disco
TTITLE0=I Wanna Hear Your Heartbeat (Sunday Girl)
TTITLE1=Queen Of Hearts
TTITLE2=Lonely Weekend
TTITLE3=Kisses and Tears (My One and Only)
TTITLE4=People Of The Night
TTITLE5=What A Feeling
TTITLE6=Gimme, Gimme Your Lovin' (Little Lady)
TTITLE7=You're Woman
TTITLE8=L.O.V.E. In My Car
TTITLE9=One Night In Heaven
TTITLE10=How I Need You
TTITLE11=Kiss You All Over, Baby
TTITLE12=Lady Blue
TTITLE13=Lady In Black
TTITLE14=Don't Walk Away, Suzanne
TTITLE15=Chains Of Love
TTITLE16=Pretty Young Girl
TTITLE17=A World Without You (Michelle)
EXTD=
EXTT0=
EXTT1=
EXTT2=
EXTT3=
EXTT4=
EXTT5=
EXTT6=
EXTT7=
EXTT8=
EXTT9=
EXTT10=
EXTT11=
EXTT12=
EXTT13=
EXTT14=
EXTT15=
EXTT16=
EXTT17=
PLAYORDER=
